<svg width="151" height="70" viewBox="0 0 151 70" fill="none" xmlns="http://www.w3.org/2000/svg">
<path d="M19.6447 42.4107C19.6447 44.9284 18.5553 46.8408 16.3766 48.148C17.5628 48.5838 18.5553 49.3342 19.3542 50.3994C20.1531 51.4645 20.5525 52.9775 20.5525 54.9383C20.5525 56.875 19.8263 58.4122 18.3738 59.5499C16.9455 60.6877 14.8879 61.2566 12.2008 61.2566H3.63118C3.21965 61.2566 2.88074 61.1234 2.61445 60.8572C2.34817 60.5667 2.21502 60.1914 2.21502 59.7315V36.4919C2.21502 36.2256 2.25133 36.0562 2.32396 35.9836C2.42079 35.8867 2.60235 35.8383 2.86864 35.8383H11.1477C16.8124 35.8383 19.6447 38.0291 19.6447 42.4107ZM9.1869 41.7208V46.4777H9.36845C11.6924 46.4777 12.8544 45.703 12.8544 44.1537C12.8544 43.3064 12.6244 42.6891 12.1645 42.3018C11.7287 41.9145 10.9904 41.7208 9.94944 41.7208H9.1869ZM9.1869 50.7625V55.483H9.84051C10.8814 55.483 11.644 55.2893 12.1282 54.902C12.6123 54.5147 12.8544 53.8974 12.8544 53.0501C12.8544 52.2028 12.6244 51.6097 12.1645 51.2708C11.7287 50.9319 10.9904 50.7625 9.94944 50.7625H9.1869ZM35.2497 36.5645C35.2497 36.0804 36.5569 35.8383 39.1714 35.8383C41.8101 35.8383 43.1294 36.0804 43.1294 36.5645V53.2317C43.1294 55.7009 42.2458 57.7222 40.4786 59.2958C38.7114 60.8451 36.2664 61.6197 33.1436 61.6197C30.045 61.6197 27.5153 60.8208 25.5545 59.2231C23.6178 57.6012 22.6495 55.4225 22.6495 52.687V36.6009C22.6495 36.1167 23.9567 35.8746 26.5712 35.8746C29.2098 35.8746 30.5292 36.1167 30.5292 36.6009V52.9775C30.5292 53.4617 30.7834 53.849 31.2917 54.1395C31.8243 54.43 32.3811 54.5752 32.9621 54.5752C33.5431 54.5752 34.0635 54.4421 34.5235 54.1758C35.0076 53.9095 35.2497 53.5101 35.2497 52.9775V36.5645ZM53.1126 60.7482C53.1126 61.1356 51.9627 61.3292 49.663 61.3292C47.339 61.3292 46.177 61.1477 46.177 60.7845V37.1092C46.177 36.2619 46.6249 35.8383 47.5206 35.8383H54.4561C60.8228 35.8383 64.0061 38.3196 64.0061 43.2822C64.0061 44.7831 63.7156 46.1509 63.1347 47.3855C62.5537 48.5959 61.7306 49.5642 60.6654 50.2904L65.2407 57.9159C65.0471 58.4969 64.4177 59.1626 63.3525 59.9131C61.9 60.954 60.7018 61.4745 59.7577 61.4745C58.8135 61.4745 58.1115 61.1356 57.6516 60.4577L54.2383 52.5054H53.1126V60.7482ZM53.1126 42.2655V47.7123H53.2941C55.5939 47.7123 56.7438 46.7561 56.7438 44.8436C56.7438 43.9722 56.5138 43.3306 56.0538 42.9191C55.6181 42.4834 54.8919 42.2655 53.8751 42.2655H53.1126ZM81.0307 53.6674L81.1033 48.729C81.1033 48.3901 81.4543 48.1722 82.1564 48.0754C82.8584 47.9544 83.4394 47.8938 83.8993 47.8938L85.3155 48.0028C86.2354 48.148 86.6954 48.4022 86.6954 48.7653L86.5501 60.1309C86.066 60.4698 85.0855 60.8087 83.6089 61.1477C82.1564 61.4624 80.486 61.6197 78.5978 61.6197C75.0877 61.6197 72.2554 60.4819 70.1008 58.2064C67.9463 55.9309 66.8691 52.5902 66.8691 48.1843C66.8691 44.4321 67.9221 41.3819 70.0282 39.0337C72.1343 36.6856 75.0514 35.5115 78.7794 35.5115C80.4739 35.5115 81.999 35.681 83.3547 36.0199C84.7345 36.3346 85.6786 36.7703 86.187 37.3271C86.2112 37.5208 86.2233 37.8839 86.2233 38.4164C86.2233 38.949 86.0417 39.7116 85.6786 40.7041C85.3155 41.6724 84.904 42.3986 84.444 42.8828C83.9841 43.367 83.6452 43.609 83.4273 43.609C83.2336 43.609 83.0158 43.5243 82.7737 43.3549C82.5558 43.1612 82.108 42.9675 81.4301 42.7739C80.7523 42.556 80.0987 42.4471 79.4693 42.4471C77.9684 42.4471 76.7459 42.9312 75.8018 43.8995C74.8819 44.8678 74.422 46.3687 74.422 48.4022C74.422 50.4357 74.894 51.985 75.8381 53.0501C76.8064 54.0911 77.9079 54.6115 79.1425 54.6115C80.4013 54.6115 81.0307 54.2968 81.0307 53.6674ZM102.022 36.5645C102.022 36.0804 103.33 35.8383 105.944 35.8383C108.583 35.8383 109.902 36.0804 109.902 36.5645V53.2317C109.902 55.7009 109.018 57.7222 107.251 59.2958C105.484 60.8451 103.039 61.6197 99.9163 61.6197C96.8177 61.6197 94.2879 60.8208 92.3271 59.2231C90.3905 57.6012 89.4221 55.4225 89.4221 52.687V36.6009C89.4221 36.1167 90.7294 35.8746 93.3438 35.8746C95.9825 35.8746 97.3018 36.1167 97.3018 36.6009V52.9775C97.3018 53.4617 97.556 53.849 98.0644 54.1395C98.5969 54.43 99.1537 54.5752 99.7347 54.5752C100.316 54.5752 100.836 54.4421 101.296 54.1758C101.78 53.9095 102.022 53.5101 102.022 52.9775V36.5645ZM124.751 45.933C125.211 45.933 125.441 46.7803 125.441 48.4748C125.441 48.9832 125.38 49.5884 125.259 50.2904C125.163 50.9682 124.969 51.3071 124.678 51.3071H120.067V54.9383H126.748C127.16 54.9383 127.438 55.4709 127.583 56.5361C127.656 56.996 127.692 57.4923 127.692 58.0248C127.692 58.5332 127.62 59.1989 127.474 60.022C127.329 60.8451 127.087 61.2566 126.748 61.2566H114.33C113.41 61.2566 112.95 60.8814 112.95 60.1309V36.7824C112.95 36.153 113.228 35.8383 113.785 35.8383H126.784C127.293 35.8383 127.547 36.9156 127.547 39.0701C127.547 41.2004 127.293 42.2655 126.784 42.2655H120.067V45.933H124.751ZM137.793 60.7482C137.793 61.1356 136.643 61.3292 134.343 61.3292C132.019 61.3292 130.857 61.1477 130.857 60.7845V37.1092C130.857 36.2619 131.305 35.8383 132.201 35.8383H139.136C145.503 35.8383 148.686 38.3196 148.686 43.2822C148.686 44.7831 148.396 46.1509 147.815 47.3855C147.234 48.5959 146.411 49.5642 145.346 50.2904L149.921 57.9159C149.727 58.4969 149.098 59.1626 148.033 59.9131C146.58 60.954 145.382 61.4745 144.438 61.4745C143.494 61.4745 142.792 61.1356 142.332 60.4577L138.919 52.5054H137.793V60.7482ZM137.793 42.2655V47.7123H137.974C140.274 47.7123 141.424 46.7561 141.424 44.8436C141.424 43.9722 141.194 43.3306 140.734 42.9191C140.298 42.4834 139.572 42.2655 138.555 42.2655H137.793Z" fill="white"/>
<path d="M34.7877 44.7097L19.3831 45.1355L34.9295 43.0418L34.7877 44.7097ZM35.1093 41.1124L19.7407 41.5333L35.2871 39.4396L35.1093 41.1124ZM35.4718 37.5461L20.1032 37.9671L35.6135 35.8783L35.4718 37.5461ZM35.7982 33.9848L20.4656 34.4009L35.976 32.312L35.7982 33.9848ZM36.1606 30.4185L20.828 30.8347L36.3024 28.7507L36.1606 30.4185ZM36.4871 26.8572L21.1905 27.2685L36.6648 25.1845L36.4871 26.8572ZM36.8495 23.291L21.5529 23.7022L36.9913 21.6231L36.8495 23.291ZM43.0073 43.7127L35.8819 44.6723L38.1069 21.4728L47.0317 20.2709L49.2206 31.6275L49.4725 31.5936L52.6096 19.5197L61.5344 18.3177L61.9004 41.1682L54.739 42.1327L54.782 31.0251L54.5301 31.059L51.5002 42.5689L46.2821 43.2716L44.0579 32.4694L43.8779 32.4936L43.0073 43.7127ZM79.5498 38.7913L72.3524 39.7606L78.7879 15.9941L89.368 14.5692L93.9806 36.8478L86.7472 37.822L86.1234 34.2787L80.4735 35.0396L79.5498 38.7913ZM84.813 28.6294L83.9649 22.3317L83.605 22.3802L81.9341 29.0172L84.813 28.6294ZM71.1814 39.7718L56.2135 40.1754L71.6519 38.0962L71.1814 39.7718ZM72.1868 36.0823L57.2189 36.486L72.6573 34.4068L72.1868 36.0823ZM73.197 32.4289L58.2291 32.8325L73.6315 30.7582L73.197 32.4289ZM74.1712 28.7802L59.2393 29.1791L74.6417 27.1047L74.1712 28.7802ZM75.1814 25.1268L60.2495 25.5256L75.6159 23.4561L75.1814 25.1268ZM77.161 17.7887L62.2699 18.2187L77.6003 16.1541L77.161 17.7887ZM76.1508 21.4422L61.2597 21.8721L76.5901 19.8075L76.1508 21.4422ZM77.161 17.7887L77.6003 16.1541L62.2699 18.2187L77.161 17.7887ZM104.853 24.6482L89.8493 25.0567L105.18 22.992L105.351 23.4453L104.853 24.6482ZM85.42 36.242L100.966 34.1483L100.275 35.8169L85.42 36.242ZM104.465 21.2197L89.0241 21.6504L103.851 19.6536L104.465 21.2197ZM103.334 28.3335L88.5152 28.7537L104.026 26.6649L103.334 28.3335ZM103.172 17.8764L87.7312 18.3071L102.558 16.3103C102.678 16.6605 102.883 17.1825 103.172 17.8764ZM101.879 14.5331L86.4382 14.9638L101.265 12.967C101.385 13.3172 101.59 13.8393 101.879 14.5331ZM101.82 32.0548L87.0012 32.475L102.512 30.3862L101.82 32.0548ZM110.154 11.7699L112.223 17.6101L112.582 17.5617L115.192 11.0914L122.605 10.093L117.375 21.8626L121.676 33.118L114.082 34.1406L111.771 27.8568L111.483 27.8956L108.684 34.8676L101.451 35.8418L106.536 23.5421L102.38 12.8168L110.154 11.7699Z" fill="#DB241B"/>
</svg>
